<?xml version="1.0" standalone="no"?>
<!DOCTYPE svg PUBLIC "-//W3C//DTD SVG 20010904//EN"
 "http://www.w3.org/TR/2001/REC-SVG-20010904/DTD/svg10.dtd">
<svg version="1.0" xmlns="http://www.w3.org/2000/svg"
 width="65.000000pt" height="37.000000pt" viewBox="0 0 65.000000 37.000000"
 preserveAspectRatio="xMidYMid meet">

<g transform="translate(0.000000,37.000000) scale(0.100000,-0.100000)"
fill="#000000" stroke="none">
<path d="M0 185 l0 -185 325 0 325 0 0 185 0 185 -325 0 -325 0 0 -185z m540
120 c0 -14 -79 -55 -106 -55 -8 0 -14 9 -14 20 0 19 -7 20 -152 20 -83 0 -148
-3 -144 -7 4 -5 51 -30 103 -58 53 -27 97 -54 97 -60 3 -34 -91 4 -247 99
l-68 41 48 6 c26 3 146 7 266 7 184 2 217 0 217 -13z m-76 -118 c77 -39 141
-78 144 -84 3 -10 -44 -13 -215 -12 -120 0 -240 4 -268 7 l-50 7 53 27 c57 29
82 28 82 -3 0 -19 6 -19 138 -13 75 4 138 8 140 9 1 1 -42 28 -98 59 -55 32
-100 61 -100 67 0 21 42 6 174 -64z"/>
</g>
</svg>
